<svg width="154" height="60" viewBox="0 0 154 60" fill="none" xmlns="http://www.w3.org/2000/svg">
<g filter="url(#filter0_d_2_12)">
<mask id="mask0_2_12" style="mask-type:alpha" maskUnits="userSpaceOnUse" x="6" y="0" width="139" height="41">
<path d="M6 0H144.5V33H66L36 40.5H6V0Z" fill="#FFFCFC"/>
</mask>
<g mask="url(#mask0_2_12)">
<path d="M7.5 43.5C33.4699 23.1927 52.5 6 52.5 6L76 24.75L91 36.5" stroke="black" stroke-width="6"/>
<path d="M75.5 22.75L103.5 4L127 22.75L143 35.5" stroke="black" stroke-width="6"/>
</g>
<path d="M31.3438 51V37.9091H36.9943C37.9659 37.9091 38.8161 38.1009 39.5447 38.4844C40.2734 38.8679 40.8402 39.407 41.245 40.1016C41.6499 40.7962 41.8523 41.608 41.8523 42.5369C41.8523 43.4744 41.6435 44.2862 41.2259 44.9723C40.8125 45.6584 40.2308 46.1868 39.4808 46.5575C38.7351 46.9283 37.8636 47.1136 36.8665 47.1136H33.4915V44.3523H36.1506C36.5682 44.3523 36.924 44.2798 37.218 44.1349C37.5163 43.9858 37.7443 43.7749 37.902 43.5021C38.0639 43.2294 38.1449 42.9077 38.1449 42.5369C38.1449 42.1619 38.0639 41.8423 37.902 41.5781C37.7443 41.3097 37.5163 41.1051 37.218 40.9645C36.924 40.8196 36.5682 40.7472 36.1506 40.7472H34.8977V51H31.3438ZM56.3781 44.4545C56.3781 45.9119 56.0947 47.1413 55.5279 48.1428C54.9612 49.1399 54.1963 49.8963 53.2332 50.4119C52.2701 50.9233 51.1963 51.179 50.0116 51.179C48.8184 51.179 47.7403 50.9212 46.7772 50.4055C45.8184 49.8857 45.0556 49.1271 44.4889 48.13C43.9264 47.1286 43.6451 45.9034 43.6451 44.4545C43.6451 42.9972 43.9264 41.7699 44.4889 40.7727C45.0556 39.7713 45.8184 39.0149 46.7772 38.5036C47.7403 37.9879 48.8184 37.7301 50.0116 37.7301C51.1963 37.7301 52.2701 37.9879 53.2332 38.5036C54.1963 39.0149 54.9612 39.7713 55.5279 40.7727C56.0947 41.7699 56.3781 42.9972 56.3781 44.4545ZM52.7218 44.4545C52.7218 43.6705 52.6174 43.0099 52.4086 42.473C52.2041 41.9318 51.8994 41.5227 51.4945 41.2457C51.094 40.9645 50.5997 40.8239 50.0116 40.8239C49.4235 40.8239 48.9271 40.9645 48.5222 41.2457C48.1217 41.5227 47.817 41.9318 47.6082 42.473C47.4036 43.0099 47.3014 43.6705 47.3014 44.4545C47.3014 45.2386 47.4036 45.9013 47.6082 46.4425C47.817 46.9794 48.1217 47.3885 48.5222 47.6697C48.9271 47.9467 49.4235 48.0852 50.0116 48.0852C50.5997 48.0852 51.094 47.9467 51.4945 47.6697C51.8994 47.3885 52.2041 46.9794 52.4086 46.4425C52.6174 45.9013 52.7218 45.2386 52.7218 44.4545ZM61.0601 51L57.1993 37.9091H61.1624L62.9522 45.9631H63.0544L65.1766 37.9091H68.2959L70.4181 45.9886H70.5203L72.3101 37.9091H76.2732L72.4124 51H69.0118L66.7874 43.6875H66.6851L64.4607 51H61.0601ZM89.1465 42C89.1124 41.5739 88.9526 41.2415 88.6671 41.0028C88.3859 40.7642 87.9576 40.6449 87.3823 40.6449C87.0158 40.6449 86.7154 40.6896 86.481 40.7791C86.2509 40.8643 86.0805 40.9815 85.9697 41.1307C85.8589 41.2798 85.8013 41.4503 85.7971 41.642C85.7886 41.7997 85.8163 41.9425 85.8802 42.0703C85.9484 42.1939 86.0549 42.3068 86.1998 42.4091C86.3447 42.5071 86.53 42.5966 86.7559 42.6776C86.9817 42.7585 87.2502 42.831 87.5613 42.8949L88.6351 43.125C89.3596 43.2784 89.9796 43.4808 90.4952 43.7322C91.0109 43.9837 91.4327 44.2798 91.7609 44.6207C92.089 44.9574 92.3297 45.3366 92.4832 45.7585C92.6408 46.1804 92.7218 46.6406 92.7261 47.1392C92.7218 48 92.5066 48.7287 92.0805 49.3253C91.6543 49.9219 91.0449 50.3757 90.2523 50.6868C89.464 50.9979 88.5158 51.1534 87.4079 51.1534C86.2701 51.1534 85.2772 50.9851 84.4292 50.6484C83.5854 50.3118 82.9292 49.794 82.4604 49.0952C81.9959 48.392 81.7616 47.4929 81.7573 46.3977H85.1323C85.1536 46.7983 85.2538 47.1349 85.4327 47.4077C85.6117 47.6804 85.8631 47.8871 86.187 48.0277C86.5151 48.1683 86.905 48.2386 87.3567 48.2386C87.736 48.2386 88.0535 48.1918 88.3091 48.098C88.5648 48.0043 88.7587 47.8743 88.8908 47.7081C89.0229 47.5419 89.0911 47.3523 89.0954 47.1392C89.0911 46.9389 89.0251 46.7642 88.8972 46.6151C88.7736 46.4616 88.5691 46.3253 88.2836 46.206C87.9981 46.0824 87.6124 45.9673 87.1266 45.8608L85.8226 45.5795C84.6636 45.3281 83.7495 44.9084 83.0805 44.3203C82.4157 43.728 82.0854 42.9205 82.0897 41.8977C82.0854 41.0668 82.307 40.3402 82.7545 39.718C83.2062 39.0916 83.8305 38.6037 84.6273 38.2543C85.4285 37.9048 86.3468 37.7301 87.3823 37.7301C88.4391 37.7301 89.3532 37.907 90.1245 38.2607C90.8958 38.6143 91.4903 39.1129 91.9079 39.7564C92.3297 40.3956 92.5428 41.1435 92.5471 42H89.1465ZM94.26 40.7727V37.9091H105.638V40.7727H101.7V51H98.1975V40.7727H94.26ZM109.264 51H105.428L109.749 37.9091H114.607L118.928 51H115.093L112.23 41.5142H112.127L109.264 51ZM108.548 45.8352H115.758V48.4943H108.548V45.8352ZM127.276 42C127.242 41.5739 127.082 41.2415 126.797 41.0028C126.516 40.7642 126.087 40.6449 125.512 40.6449C125.146 40.6449 124.845 40.6896 124.611 40.7791C124.381 40.8643 124.21 40.9815 124.099 41.1307C123.989 41.2798 123.931 41.4503 123.927 41.642C123.918 41.7997 123.946 41.9425 124.01 42.0703C124.078 42.1939 124.185 42.3068 124.33 42.4091C124.474 42.5071 124.66 42.5966 124.886 42.6776C125.111 42.7585 125.38 42.831 125.691 42.8949L126.765 43.125C127.489 43.2784 128.109 43.4808 128.625 43.7322C129.141 43.9837 129.562 44.2798 129.891 44.6207C130.219 44.9574 130.46 45.3366 130.613 45.7585C130.771 46.1804 130.852 46.6406 130.856 47.1392C130.852 48 130.636 48.7287 130.21 49.3253C129.784 49.9219 129.175 50.3757 128.382 50.6868C127.594 50.9979 126.646 51.1534 125.538 51.1534C124.4 51.1534 123.407 50.9851 122.559 50.6484C121.715 50.3118 121.059 49.794 120.59 49.0952C120.126 48.392 119.891 47.4929 119.887 46.3977H123.262C123.283 46.7983 123.384 47.1349 123.562 47.4077C123.741 47.6804 123.993 47.8871 124.317 48.0277C124.645 48.1683 125.035 48.2386 125.486 48.2386C125.866 48.2386 126.183 48.1918 126.439 48.098C126.695 48.0043 126.888 47.8743 127.021 47.7081C127.153 47.5419 127.221 47.3523 127.225 47.1392C127.221 46.9389 127.155 46.7642 127.027 46.6151C126.903 46.4616 126.699 46.3253 126.413 46.206C126.128 46.0824 125.742 45.9673 125.256 45.8608L123.952 45.5795C122.793 45.3281 121.879 44.9084 121.21 44.3203C120.545 43.728 120.215 42.9205 120.219 41.8977C120.215 41.0668 120.437 40.3402 120.884 39.718C121.336 39.0916 121.96 38.6037 122.757 38.2543C123.558 37.9048 124.477 37.7301 125.512 37.7301C126.569 37.7301 127.483 37.907 128.254 38.2607C129.026 38.6143 129.62 39.1129 130.038 39.7564C130.46 40.3956 130.673 41.1435 130.677 42H127.276ZM132.748 51V37.9091H136.302V43.0227H141.006V37.9091H144.56V51H141.006V45.8864H136.302V51H132.748Z" fill="black"/>
</g>
<defs>
<filter id="filter0_d_2_12" x="0" y="0.285736" width="146.56" height="58.8932" filterUnits="userSpaceOnUse" color-interpolation-filters="sRGB">
<feFlood flood-opacity="0" result="BackgroundImageFix"/>
<feColorMatrix in="SourceAlpha" type="matrix" values="0 0 0 0 0 0 0 0 0 0 0 0 0 0 0 0 0 0 127 0" result="hardAlpha"/>
<feOffset dx="-2" dy="4"/>
<feGaussianBlur stdDeviation="2"/>
<feComposite in2="hardAlpha" operator="out"/>
<feColorMatrix type="matrix" values="0 0 0 0 0 0 0 0 0 0 0 0 0 0 0 0 0 0 0.25 0"/>
<feBlend mode="normal" in2="BackgroundImageFix" result="effect1_dropShadow_2_12"/>
<feBlend mode="normal" in="SourceGraphic" in2="effect1_dropShadow_2_12" result="shape"/>
</filter>
</defs>
</svg>
