<svg width="148" height="52" viewBox="0 0 148 52" fill="none" xmlns="http://www.w3.org/2000/svg">
<mask id="mask0_2_12" style="mask-type:alpha" maskUnits="userSpaceOnUse" x="0" y="0" width="139" height="41">
<path d="M0 0H138.5V33H60L30 40.5H0V0Z" fill="#FFFCFC"/>
</mask>
<g mask="url(#mask0_2_12)">
<path d="M1.5 43.5C27.4699 23.1927 46.5 6 46.5 6L70 24.75L85 36.5" stroke="black" stroke-width="6"/>
<path d="M69.5 22.75L97.5 4L121 22.75L137 35.5" stroke="black" stroke-width="6"/>
</g>
<path d="M25.3438 51V37.9091H30.9943C31.9659 37.9091 32.8161 38.1009 33.5447 38.4844C34.2734 38.8679 34.8402 39.407 35.245 40.1016C35.6499 40.7962 35.8523 41.608 35.8523 42.5369C35.8523 43.4744 35.6435 44.2862 35.2259 44.9723C34.8125 45.6584 34.2308 46.1868 33.4808 46.5575C32.7351 46.9283 31.8636 47.1136 30.8665 47.1136H27.4915V44.3523H30.1506C30.5682 44.3523 30.924 44.2798 31.218 44.1349C31.5163 43.9858 31.7443 43.7749 31.902 43.5021C32.0639 43.2294 32.1449 42.9077 32.1449 42.5369C32.1449 42.1619 32.0639 41.8423 31.902 41.5781C31.7443 41.3097 31.5163 41.1051 31.218 40.9645C30.924 40.8196 30.5682 40.7472 30.1506 40.7472H28.8977V51H25.3438ZM50.3781 44.4545C50.3781 45.9119 50.0947 47.1413 49.5279 48.1428C48.9612 49.1399 48.1963 49.8963 47.2332 50.4119C46.2701 50.9233 45.1963 51.179 44.0116 51.179C42.8184 51.179 41.7403 50.9212 40.7772 50.4055C39.8184 49.8857 39.0556 49.1271 38.4889 48.13C37.9264 47.1286 37.6451 45.9034 37.6451 44.4545C37.6451 42.9972 37.9264 41.7699 38.4889 40.7727C39.0556 39.7713 39.8184 39.0149 40.7772 38.5036C41.7403 37.9879 42.8184 37.7301 44.0116 37.7301C45.1963 37.7301 46.2701 37.9879 47.2332 38.5036C48.1963 39.0149 48.9612 39.7713 49.5279 40.7727C50.0947 41.7699 50.3781 42.9972 50.3781 44.4545ZM46.7218 44.4545C46.7218 43.6705 46.6174 43.0099 46.4086 42.473C46.2041 41.9318 45.8994 41.5227 45.4945 41.2457C45.094 40.9645 44.5997 40.8239 44.0116 40.8239C43.4235 40.8239 42.9271 40.9645 42.5222 41.2457C42.1217 41.5227 41.817 41.9318 41.6082 42.473C41.4036 43.0099 41.3014 43.6705 41.3014 44.4545C41.3014 45.2386 41.4036 45.9013 41.6082 46.4425C41.817 46.9794 42.1217 47.3885 42.5222 47.6697C42.9271 47.9467 43.4235 48.0852 44.0116 48.0852C44.5997 48.0852 45.094 47.9467 45.4945 47.6697C45.8994 47.3885 46.2041 46.9794 46.4086 46.4425C46.6174 45.9013 46.7218 45.2386 46.7218 44.4545ZM55.0601 51L51.1993 37.9091H55.1624L56.9522 45.9631H57.0544L59.1766 37.9091H62.2959L64.4181 45.9886H64.5203L66.3101 37.9091H70.2732L66.4124 51H63.0118L60.7874 43.6875H60.6851L58.4607 51H55.0601ZM83.1465 42C83.1124 41.5739 82.9526 41.2415 82.6671 41.0028C82.3859 40.7642 81.9576 40.6449 81.3823 40.6449C81.0158 40.6449 80.7154 40.6896 80.481 40.7791C80.2509 40.8643 80.0805 40.9815 79.9697 41.1307C79.8589 41.2798 79.8013 41.4503 79.7971 41.642C79.7886 41.7997 79.8163 41.9425 79.8802 42.0703C79.9484 42.1939 80.0549 42.3068 80.1998 42.4091C80.3447 42.5071 80.53 42.5966 80.7559 42.6776C80.9817 42.7585 81.2502 42.831 81.5613 42.8949L82.6351 43.125C83.3596 43.2784 83.9796 43.4808 84.4952 43.7322C85.0109 43.9837 85.4327 44.2798 85.7609 44.6207C86.089 44.9574 86.3297 45.3366 86.4832 45.7585C86.6408 46.1804 86.7218 46.6406 86.7261 47.1392C86.7218 48 86.5066 48.7287 86.0805 49.3253C85.6543 49.9219 85.0449 50.3757 84.2523 50.6868C83.464 50.9979 82.5158 51.1534 81.4079 51.1534C80.2701 51.1534 79.2772 50.9851 78.4292 50.6484C77.5854 50.3118 76.9292 49.794 76.4604 49.0952C75.9959 48.392 75.7616 47.4929 75.7573 46.3977H79.1323C79.1536 46.7983 79.2538 47.1349 79.4327 47.4077C79.6117 47.6804 79.8631 47.8871 80.187 48.0277C80.5151 48.1683 80.905 48.2386 81.3567 48.2386C81.736 48.2386 82.0535 48.1918 82.3091 48.098C82.5648 48.0043 82.7587 47.8743 82.8908 47.7081C83.0229 47.5419 83.0911 47.3523 83.0954 47.1392C83.0911 46.9389 83.0251 46.7642 82.8972 46.6151C82.7736 46.4616 82.5691 46.3253 82.2836 46.206C81.9981 46.0824 81.6124 45.9673 81.1266 45.8608L79.8226 45.5795C78.6636 45.3281 77.7495 44.9084 77.0805 44.3203C76.4157 43.728 76.0854 42.9205 76.0897 41.8977C76.0854 41.0668 76.307 40.3402 76.7545 39.718C77.2062 39.0916 77.8305 38.6037 78.6273 38.2543C79.4285 37.9048 80.3468 37.7301 81.3823 37.7301C82.4391 37.7301 83.3532 37.907 84.1245 38.2607C84.8958 38.6143 85.4903 39.1129 85.9079 39.7564C86.3297 40.3956 86.5428 41.1435 86.5471 42H83.1465ZM88.26 40.7727V37.9091H99.6379V40.7727H95.7004V51H92.1975V40.7727H88.26ZM103.264 51H99.4284L103.749 37.9091H108.607L112.928 51H109.093L106.23 41.5142H106.127L103.264 51ZM102.548 45.8352H109.758V48.4943H102.548V45.8352ZM121.276 42C121.242 41.5739 121.082 41.2415 120.797 41.0028C120.516 40.7642 120.087 40.6449 119.512 40.6449C119.146 40.6449 118.845 40.6896 118.611 40.7791C118.381 40.8643 118.21 40.9815 118.099 41.1307C117.989 41.2798 117.931 41.4503 117.927 41.642C117.918 41.7997 117.946 41.9425 118.01 42.0703C118.078 42.1939 118.185 42.3068 118.33 42.4091C118.474 42.5071 118.66 42.5966 118.886 42.6776C119.111 42.7585 119.38 42.831 119.691 42.8949L120.765 43.125C121.489 43.2784 122.109 43.4808 122.625 43.7322C123.141 43.9837 123.562 44.2798 123.891 44.6207C124.219 44.9574 124.46 45.3366 124.613 45.7585C124.771 46.1804 124.852 46.6406 124.856 47.1392C124.852 48 124.636 48.7287 124.21 49.3253C123.784 49.9219 123.175 50.3757 122.382 50.6868C121.594 50.9979 120.646 51.1534 119.538 51.1534C118.4 51.1534 117.407 50.9851 116.559 50.6484C115.715 50.3118 115.059 49.794 114.59 49.0952C114.126 48.392 113.891 47.4929 113.887 46.3977H117.262C117.283 46.7983 117.384 47.1349 117.562 47.4077C117.741 47.6804 117.993 47.8871 118.317 48.0277C118.645 48.1683 119.035 48.2386 119.486 48.2386C119.866 48.2386 120.183 48.1918 120.439 48.098C120.695 48.0043 120.888 47.8743 121.021 47.7081C121.153 47.5419 121.221 47.3523 121.225 47.1392C121.221 46.9389 121.155 46.7642 121.027 46.6151C120.903 46.4616 120.699 46.3253 120.413 46.206C120.128 46.0824 119.742 45.9673 119.256 45.8608L117.952 45.5795C116.793 45.3281 115.879 44.9084 115.21 44.3203C114.545 43.728 114.215 42.9205 114.219 41.8977C114.215 41.0668 114.437 40.3402 114.884 39.718C115.336 39.0916 115.96 38.6037 116.757 38.2543C117.558 37.9048 118.477 37.7301 119.512 37.7301C120.569 37.7301 121.483 37.907 122.254 38.2607C123.026 38.6143 123.62 39.1129 124.038 39.7564C124.46 40.3956 124.673 41.1435 124.677 42H121.276ZM126.748 51V37.9091H130.302V43.0227H135.006V37.9091H138.56V51H135.006V45.8864H130.302V51H126.748Z" fill="black"/>
</svg>
